<svg width="176" height="22" viewBox="0 0 176 22" fill="none" xmlns="http://www.w3.org/2000/svg">
<path d="M87.9797 18.919H82.0812V3.14977H87.9797V18.919ZM82.6572 18.343H87.4037V3.7258H82.6572V18.343ZM96.1869 18.919H90.4071V3.14977H102.483C104.213 3.00969 105.935 3.49535 107.338 4.51841C107.941 5.07059 108.409 5.75477 108.704 6.51754C109 7.28032 109.115 8.10108 109.041 8.91577C109.128 10.3235 108.68 11.712 107.787 12.8039C106.73 14.0159 104.972 14.6403 102.562 14.6622C101.955 14.6783 97.4057 14.6622 96.1903 14.6622L96.1869 18.919ZM90.9796 18.343H95.6108V14.0804H95.9C95.9588 14.0804 101.865 14.0988 102.548 14.0804C104.794 14.0608 106.408 13.5044 107.351 12.418C108.146 11.4301 108.541 10.1797 108.457 8.91462C108.528 8.18465 108.43 7.44817 108.17 6.76229C107.91 6.07642 107.496 5.45959 106.96 4.95964C105.66 4.0266 104.069 3.58862 102.475 3.72465H90.9831L90.9796 18.343ZM101.259 11.1196H95.5717V6.82711H101.297C101.703 6.77103 102.117 6.8184 102.499 6.96481C102.882 7.11124 103.221 7.35196 103.486 7.66465C103.726 8.06434 103.84 8.52751 103.811 8.99296C103.833 9.42509 103.739 9.85523 103.54 10.2395C103.267 10.5688 102.914 10.8224 102.514 10.9757C102.115 11.129 101.683 11.177 101.259 11.115V11.1196ZM96.1477 10.5436H101.259C102.204 10.5436 102.789 10.3466 103.048 9.94109C103.191 9.64634 103.256 9.31986 103.236 8.99296C103.261 8.64972 103.187 8.3065 103.022 8.0045L103.015 7.99413C102.741 7.59092 102.196 7.40313 101.297 7.40313H96.1477V10.5436ZM119.554 19.1517C114.381 19.1517 111.294 17.8672 110.117 15.2255C109.925 14.7153 109.794 14.1839 109.728 13.6426L109.677 13.3108H115.832L115.872 13.5528C115.919 13.7984 116.024 14.0296 116.176 14.2279C116.419 14.5216 117.23 15.0147 119.921 15.0147C123.156 15.0147 123.156 14.4467 123.156 14.1415C123.156 13.6265 122.782 13.4502 120.144 13.1691L119.643 13.1219C118.649 13.0286 117.394 12.9099 116.82 12.8604C111.981 12.4226 109.821 10.9192 109.821 7.98722C109.821 4.9078 113.498 2.91821 119.187 2.91821C123.829 2.91821 126.82 4.14169 128.074 6.55753C128.372 7.11948 128.572 7.728 128.665 8.35703L128.706 8.68075H122.545L122.519 8.42039C122.495 8.21692 122.409 8.02603 122.27 7.87432C122.04 7.56557 121.312 7.05521 119.052 7.05521C116.276 7.05521 115.894 7.41004 115.894 7.79252C115.894 8.30288 116.77 8.48375 119.58 8.78444C120.752 8.88006 122.636 9.0736 123.281 9.15194C127.337 9.59202 129.147 11.0586 129.147 13.9087C129.148 16.2992 127.483 19.1517 119.554 19.1517ZM110.35 13.8869C110.408 14.2668 110.507 14.6391 110.646 14.9974C111.718 17.4041 114.632 18.5757 119.554 18.5757C123.669 18.5757 128.576 17.7693 128.576 13.9087C128.576 11.3823 126.974 10.1312 123.22 9.72451C122.575 9.64617 120.702 9.45378 119.533 9.357C116.538 9.03213 115.32 8.85932 115.32 7.79252C115.32 6.68886 116.632 6.47919 119.054 6.47919C120.967 6.47919 122.204 6.8248 122.728 7.52179C122.871 7.69351 122.979 7.89154 123.046 8.10473H128.039C127.938 7.65917 127.779 7.22882 127.566 6.8248C126.414 4.61403 123.6 3.49424 119.19 3.49424C113.85 3.49424 110.4 5.25802 110.4 7.98722C110.4 10.5908 112.336 11.8765 116.873 12.2867C117.449 12.3362 118.704 12.4549 119.699 12.5493L120.204 12.5966C122.654 12.8546 123.735 13.0159 123.735 14.1415C123.735 15.3534 122.337 15.5907 119.924 15.5907C117.691 15.5907 116.281 15.2555 115.736 14.5954C115.568 14.3849 115.441 14.1445 115.363 13.8869H110.35ZM140.091 19.1321C134.078 19.1321 130.76 16.7002 130.76 12.2832V3.14977H136.58V12.2832C136.58 13.7981 137.936 14.6668 140.299 14.6668C142.557 14.6668 143.959 13.7601 143.959 12.3028V3.14977H149.719V12.7671C149.725 16.8119 146.212 19.1321 140.088 19.1321H140.091ZM131.336 3.7258V12.2832C131.336 17.7416 136.817 18.5561 140.091 18.5561C143.476 18.5561 149.152 17.8038 149.152 12.7671V3.7258H144.544V12.3028C144.544 14.0885 142.88 15.2428 140.308 15.2428C137.619 15.2428 136.013 14.1368 136.013 12.2832V3.7258H131.336ZM174.129 18.919H168.636V11.7993L165.521 18.919H160.729L157.646 11.8132V18.919H152.134V3.14977H159.385L163.152 11.8443L167.101 3.14977H174.136L174.129 18.919ZM169.212 18.343H173.553V3.7258H167.467L163.133 13.2636L159.002 3.7258H152.705V18.343H157.066V9.04134L161.098 18.3464H165.13L169.205 9.05517L169.212 18.343ZM7.75228 3.43779H2.50586V18.631H17.0032V14.5861H7.75228V3.43779ZM27.5928 3.09217C20.896 3.09217 17.3742 6.26606 17.3742 10.9261C17.3742 16.1909 21.0711 18.8614 27.5928 18.8614C34.7724 18.8614 37.7919 15.7647 37.7919 10.9261C37.7919 6.01261 34.3853 3.08987 27.5928 3.08987V3.09217ZM27.5733 7.04024C28.0291 7.03809 28.4848 7.06464 28.9373 7.11973L23.0722 12.9848C22.7947 12.357 22.6593 11.6756 22.6759 10.9895C22.6759 8.60587 23.8763 7.03793 27.5733 7.03793V7.04024ZM27.5928 14.9755C27.1536 14.9775 26.7146 14.9528 26.2784 14.9018L32.1538 9.02637C32.421 9.64375 32.5488 10.3124 32.5282 10.9848C32.5282 13.3039 31.4222 14.9732 27.5928 14.9732V14.9755ZM48.1868 12.9019H53.5865C53.507 13.2766 53.3413 13.6276 53.1026 13.9272C51.9832 14.8391 50.5545 15.2829 49.1154 15.1656C48.391 15.2432 47.6585 15.164 46.9674 14.9336C46.2763 14.7033 45.6426 14.3271 45.1097 13.8304C44.5638 13.0296 44.3044 12.0679 44.3736 11.1012C44.2852 10.0883 44.5672 9.07766 45.1673 8.2568C45.9219 7.40428 47.1995 7.03678 49.0774 7.03678C50.2721 6.93785 51.4654 7.2447 52.4644 7.90773C52.7792 8.15782 53.0146 8.49402 53.1418 8.87545H58.1497C58.1133 8.24697 57.9622 7.63047 57.7039 7.05637C56.5046 4.61748 53.7167 3.1659 48.976 3.1659C44.8528 3.1659 42.0856 4.42394 40.5568 6.32136C39.5472 7.69156 39.0289 9.36212 39.0857 11.0632C39.0203 12.8028 39.5253 14.516 40.5234 15.9421C42.0337 17.9006 44.7238 18.8637 47.9564 18.8637C50.1056 19.0136 52.2401 18.4116 53.9943 17.161L54.1302 18.631H58.2903V9.63119H48.1868V12.9019ZM70.0976 3.08872C63.4019 3.08872 59.879 6.26261 59.879 10.9226C59.879 16.1875 63.5747 18.8579 70.0976 18.8579C77.2783 18.8579 80.2978 15.7612 80.2978 10.9226C80.2978 6.01261 76.8912 3.08987 70.0976 3.08987V3.08872ZM70.0792 7.03678C70.5231 7.03547 70.9666 7.06086 71.4075 7.11282L65.5655 12.9583C65.2966 12.3375 65.1657 11.6658 65.1818 10.9895C65.1772 8.60587 66.3823 7.03678 70.0792 7.03678ZM70.0976 14.9721C69.6467 14.974 69.1961 14.9478 68.7486 14.8937L74.6436 8.99757C74.9209 9.62316 75.0536 10.3032 75.0318 10.9872C75.0341 13.3039 73.9328 14.9732 70.0976 14.9732V14.9721Z" fill="black" fill-opacity="0.6"/>
</svg>
