<svg width="136" height="34" viewBox="0 0 136 34" fill="none" xmlns="http://www.w3.org/2000/svg">
<g clip-path="url(#clip0_320_213)">
<path d="M39.7563 23.7044H49.4181V20.7942H43.1904V9.83252H39.7563V23.7044Z" fill="black" fill-opacity="0.6"/>
<path d="M55.1427 21.7643C53.7652 21.7643 53.0474 20.5614 53.0474 18.7571C53.0474 16.9528 53.7652 15.7305 55.1427 15.7305C56.5202 15.7305 57.2574 16.9528 57.2574 18.7571C57.2574 20.5614 56.5202 21.7643 55.1427 21.7643ZM55.1621 24.0148C58.3633 24.0148 60.4586 21.7449 60.4586 18.7571C60.4586 15.7693 58.3633 13.4994 55.1621 13.4994C51.9803 13.4994 49.8462 15.7693 49.8462 18.7571C49.8462 21.7449 51.9803 24.0148 55.1621 24.0148Z" fill="black" fill-opacity="0.6"/>
<path d="M65.9997 27.1384C67.4742 27.1384 68.7741 26.8086 69.6472 26.0326C70.4426 25.3147 70.9665 24.2282 70.9665 22.7344V13.771H67.9399V14.8381H67.9011C67.319 14.0038 66.4266 13.48 65.1073 13.48C62.6433 13.48 60.936 15.5365 60.936 18.4467C60.936 21.4927 63.012 23.1612 65.2431 23.1612C66.446 23.1612 67.2026 22.6761 67.7847 22.0165H67.8623V23.006C67.8623 24.2088 67.2996 24.9073 65.9609 24.9073C64.9133 24.9073 64.3894 24.4611 64.2148 23.9372H61.1494C61.4599 26.0132 63.2642 27.1384 65.9997 27.1384ZM65.9803 20.8136C64.7969 20.8136 64.0208 19.8436 64.0208 18.3497C64.0208 16.8364 64.7969 15.8663 65.9803 15.8663C67.2996 15.8663 67.9981 16.9916 67.9981 18.3303C67.9981 19.7272 67.3578 20.8136 65.9803 20.8136Z" fill="black" fill-opacity="0.6"/>
<path d="M77.1896 21.7643C75.8121 21.7643 75.0943 20.5614 75.0943 18.7571C75.0943 16.9528 75.8121 15.7305 77.1896 15.7305C78.5671 15.7305 79.3043 16.9528 79.3043 18.7571C79.3043 20.5614 78.5671 21.7643 77.1896 21.7643ZM77.209 24.0148C80.4102 24.0148 82.5058 21.7449 82.5058 18.7571C82.5058 15.7693 80.4102 13.4994 77.209 13.4994C74.0272 13.4994 71.8931 15.7693 71.8931 18.7571C71.8931 21.7449 74.0272 24.0148 77.209 24.0148Z" fill="black" fill-opacity="0.6"/>
<path d="M83.4287 23.7044H86.5911V13.771H83.4287V23.7044ZM83.4287 12.3935H86.5911V9.83252H83.4287V12.3935Z" fill="black" fill-opacity="0.6"/>
<path d="M87.9629 26.9832H91.1253V22.6761H91.1641C91.7849 23.5104 92.6968 24.0148 93.9773 24.0148C96.577 24.0148 98.3037 21.9583 98.3037 18.7377C98.3037 15.7499 96.6934 13.48 94.0549 13.48C92.6968 13.48 91.7267 14.0814 91.0477 14.9739H90.9895V13.771H87.9629V26.9832ZM93.1624 21.5703C91.8043 21.5703 91.0283 20.4644 91.0283 18.8541C91.0283 17.2438 91.7267 16.0215 93.1042 16.0215C94.4623 16.0215 95.1025 17.1468 95.1025 18.8541C95.1025 20.542 94.3653 21.5703 93.1624 21.5703Z" fill="black" fill-opacity="0.6"/>
<path d="M103.453 24.0148C106.053 24.0148 107.974 22.8896 107.974 20.7166C107.974 18.1751 105.917 17.7288 104.171 17.4378C102.91 17.205 101.785 17.108 101.785 16.4096C101.785 15.7887 102.386 15.4977 103.162 15.4977C104.035 15.4977 104.637 15.7693 104.753 16.6618H107.664C107.508 14.7023 105.995 13.48 103.182 13.48C100.834 13.48 98.8942 14.5664 98.8942 16.6618C98.8942 18.9899 100.737 19.4555 102.464 19.7466C103.783 19.9794 104.986 20.0764 104.986 20.9688C104.986 21.6091 104.385 21.9583 103.434 21.9583C102.386 21.9583 101.727 21.4733 101.61 20.4838H98.6226C98.7196 22.6761 100.543 24.0148 103.453 24.0148Z" fill="black" fill-opacity="0.6"/>
<path d="M112.269 23.9954C113.646 23.9954 114.519 23.4522 115.237 22.4821H115.295V23.7044H118.322V13.771H115.159V19.3197C115.159 20.5032 114.5 21.3181 113.413 21.3181C112.404 21.3181 111.919 20.7166 111.919 19.6302V13.771H108.776V20.2898C108.776 22.5015 109.979 23.9954 112.269 23.9954Z" fill="black" fill-opacity="0.6"/>
<path d="M119.698 23.7044H122.86V18.1363C122.86 16.9528 123.442 16.1185 124.432 16.1185C125.382 16.1185 125.829 16.7394 125.829 17.8064V23.7044H128.991V18.1363C128.991 16.9528 129.554 16.1185 130.562 16.1185C131.513 16.1185 131.959 16.7394 131.959 17.8064V23.7044H135.122V17.2438C135.122 15.0127 133.996 13.48 131.746 13.48C130.465 13.48 129.398 14.0232 128.622 15.2261H128.584C128.079 14.159 127.09 13.48 125.79 13.48C124.354 13.48 123.403 14.159 122.783 15.1873H122.724V13.771H119.698V23.7044Z" fill="black" fill-opacity="0.6"/>
<path fill-rule="evenodd" clip-rule="evenodd" d="M7.44025 3.57386C6.28373 4.38253 5.23792 5.33865 4.33007 6.41495C8.03998 6.07052 12.7533 6.63293 18.2254 9.369C24.0689 12.2907 28.7743 12.3894 32.0491 11.7578C31.7519 10.8581 31.3778 9.99348 30.9347 9.17152C27.186 9.5669 22.3802 9.04355 16.7794 6.24323C13.2228 4.46495 10.0877 3.73242 7.44025 3.57386ZM28.7449 6.05461C25.7845 2.74699 21.4824 0.665405 16.694 0.665405C15.2878 0.665405 13.9234 0.844953 12.6227 1.18235C14.3844 1.66302 16.2558 2.36623 18.2254 3.35107C22.326 5.40134 25.8662 6.06149 28.7449 6.05461ZM32.7492 14.9156C28.793 15.6969 23.3299 15.5364 16.7794 12.2612C10.6554 9.19916 5.78121 9.23772 2.49389 9.96826C2.32421 10.0059 2.15853 10.0455 1.99684 10.0868C1.56645 11.0228 1.2229 12.0071 0.976396 13.0292C1.23967 12.9589 1.51173 12.892 1.79242 12.8296C5.78051 11.9434 11.4153 11.9819 18.2254 15.3869C24.3495 18.4489 29.2236 18.4104 32.511 17.6798C32.6236 17.6549 32.7346 17.629 32.8437 17.6023C32.8557 17.3474 32.8617 17.0909 32.8617 16.833C32.8617 16.1843 32.8235 15.5445 32.7492 14.9156ZM32.3158 21.0143C28.398 21.6992 23.094 21.4363 16.7794 18.2791C10.6554 15.2171 5.78121 15.2557 2.49389 15.9862C1.7642 16.1483 1.10779 16.3458 0.528736 16.5542C0.527157 16.647 0.526367 16.7399 0.526367 16.833C0.526367 25.7622 7.76487 33.0007 16.694 33.0007C24.1773 33.0007 30.4731 27.9167 32.3158 21.0143Z" fill="black" fill-opacity="0.6"/>
</g>
<defs>
<clipPath id="clip0_320_213">
<rect width="135" height="33.1437" fill="white" transform="translate(0.444336 0.428101)"/>
</clipPath>
</defs>
</svg>
