<svg width="158" height="30" viewBox="0 0 158 30" fill="none" xmlns="http://www.w3.org/2000/svg">
<g clip-path="url(#clip0_320_186)">
<path d="M88.6792 21.9026H92.0588V9.15491H88.6792V21.9026ZM88.6792 7.16699H92.0588V4.13538H88.6792V7.16699Z" fill="black" fill-opacity="0.6"/>
<path d="M94.2368 26.0773H97.6164V20.4613H97.6657C98.3861 21.5547 99.5545 22.2753 101.343 22.2753C104.624 22.2753 106.86 19.6662 106.86 15.5412C106.86 11.5653 104.698 8.80701 101.319 8.80701C99.5791 8.80701 98.3861 9.62708 97.5664 10.7453H97.4918V9.1549H94.2368V26.0773ZM100.623 19.4674C98.6101 19.4674 97.5418 17.9516 97.5418 15.6406C97.5418 13.3544 98.3861 11.5405 100.499 11.5405C102.586 11.5405 103.431 13.2302 103.431 15.6406C103.431 18.0509 102.338 19.4674 100.623 19.4674Z" fill="black" fill-opacity="0.6"/>
<path d="M113.601 22.2753C116.782 22.2753 118.969 20.7347 118.969 18.1752C118.969 15.1933 116.608 14.5969 114.471 14.1497C112.657 13.7769 110.967 13.6775 110.967 12.5841C110.967 11.6647 111.837 11.1677 113.154 11.1677C114.595 11.1677 115.465 11.6647 115.614 13.0314H118.67C118.422 10.4719 116.558 8.80701 113.204 8.80701C110.296 8.80701 108.01 10.1241 108.01 12.8823C108.01 15.6654 110.247 16.2866 112.533 16.734C114.272 17.0819 115.887 17.2061 115.887 18.4237C115.887 19.3183 115.043 19.8898 113.552 19.8898C112.036 19.8898 110.992 19.2437 110.769 17.7776H107.638C107.836 20.4862 109.899 22.2753 113.601 22.2753Z" fill="black" fill-opacity="0.6"/>
<path d="M131.8 21.9026V9.15491H128.42V16.5103C128.42 18.2 127.451 19.3928 125.861 19.3928C124.419 19.3928 123.749 18.5728 123.749 17.0819V9.15491H120.394V17.6534C120.394 20.4365 121.984 22.2505 124.817 22.2505C126.607 22.2505 127.6 21.5796 128.47 20.4117H128.545V21.9026H131.8Z" fill="black" fill-opacity="0.6"/>
<path d="M133.985 21.9026H137.365V14.4975C137.365 12.8077 138.285 11.7144 139.652 11.7144C140.894 11.7144 141.614 12.4599 141.614 13.9011V21.9026H144.994V14.4975C144.994 12.8077 145.864 11.7144 147.28 11.7144C148.523 11.7144 149.243 12.4599 149.243 13.9011V21.9026H152.623V13.3296C152.623 10.5465 151.107 8.80701 148.423 8.80701C146.808 8.80701 145.466 9.65187 144.596 11.0434H144.547C143.926 9.70159 142.633 8.80701 141.018 8.80701C139.254 8.80701 138.011 9.70159 137.316 10.8695H137.241V9.1549H133.985V21.9026Z" fill="black" fill-opacity="0.6"/>
<path d="M0.597412 21.9026H3.97691V4.13538H0.597412V21.9026Z" fill="black" fill-opacity="0.6"/>
<path d="M12.2402 22.2753C16.1912 22.2753 18.8998 19.3431 18.8998 15.5412C18.8998 11.7392 16.1912 8.80701 12.2402 8.80701C8.28912 8.80701 5.58057 11.7392 5.58057 15.5412C5.58057 19.3431 8.28912 22.2753 12.2402 22.2753ZM12.2402 19.691C10.1529 19.691 9.00976 18.0261 9.00976 15.5412C9.00976 13.0563 10.1529 11.3665 12.2402 11.3665C14.3027 11.3665 15.4706 13.0563 15.4706 15.5412C15.4706 18.0261 14.3027 19.691 12.2402 19.691Z" fill="black" fill-opacity="0.6"/>
<path d="M26.0868 26.2512C27.9753 26.2512 29.6154 25.804 30.6838 24.8099C31.6281 23.9402 32.1997 22.7226 32.1997 20.9335V9.1549H28.9445V10.4968H28.8947C28.1244 9.42828 26.9565 8.80701 25.3661 8.80701C22.1358 8.80701 19.8496 11.2422 19.8496 15.0442C19.8496 18.8958 22.6327 21.1322 25.4656 21.1322C27.0807 21.1322 28.0499 20.4862 28.7953 19.6413H28.8699V21.0329C28.8699 22.7723 27.9504 23.6918 26.037 23.6918C24.4715 23.6918 23.7509 23.0705 23.4776 22.2753H20.1229C20.4708 24.7603 22.6079 26.2512 26.0868 26.2512ZM26.037 18.4237C24.2976 18.4237 23.1546 17.1564 23.1546 14.9945C23.1546 12.8575 24.2976 11.5156 26.0122 11.5156C28.0499 11.5156 29.0438 13.106 29.0438 14.9697C29.0438 16.8582 28.1741 18.4237 26.037 18.4237Z" fill="black" fill-opacity="0.6"/>
<path d="M40.414 22.2753C44.365 22.2753 47.0737 19.3431 47.0737 15.5412C47.0737 11.7392 44.365 8.80701 40.414 8.80701C36.463 8.80701 33.7544 11.7392 33.7544 15.5412C33.7544 19.3431 36.463 22.2753 40.414 22.2753ZM40.414 19.691C38.3267 19.691 37.1836 18.0261 37.1836 15.5412C37.1836 13.0563 38.3267 11.3665 40.414 11.3665C42.4765 11.3665 43.6445 13.0563 43.6445 15.5412C43.6445 18.0261 42.4765 19.691 40.414 19.691Z" fill="black" fill-opacity="0.6"/>
<path d="M153.851 7.06224C153.851 6.49041 154.315 6.02686 154.887 6.02686H156.957C157.529 6.02686 157.993 6.49041 157.993 7.06224C157.993 7.63407 157.529 8.09763 156.957 8.09763H154.887C154.315 8.09763 153.851 7.63407 153.851 7.06224Z" fill="black" fill-opacity="0.6"/>
<path fill-rule="evenodd" clip-rule="evenodd" d="M67.5687 0.504761C75.574 0.504761 82.0643 6.99458 82.0643 15.0002C82.0643 23.0058 75.574 29.4956 67.5687 29.4956C59.5631 29.4956 53.0732 23.0058 53.0732 15.0002C53.0732 6.99458 59.5631 0.504761 67.5687 0.504761ZM67.0447 1.58945C65.391 1.82217 63.8164 3.15096 62.594 5.37334C62.2395 6.01797 61.9196 6.73015 61.6408 7.49912C63.3029 7.08145 65.1286 6.83521 67.0447 6.79713V1.58945ZM60.4157 7.84727C60.7624 6.75923 61.1865 5.75819 61.6759 4.86835C62.2818 3.76666 63.0009 2.81529 63.8112 2.08459C59.4053 3.36415 55.9326 6.83693 54.653 11.2427C55.3837 10.4325 56.3351 9.71341 57.4368 9.1075C58.3267 8.61806 59.3277 8.19393 60.4157 7.84727ZM60.0676 9.07235C59.6499 10.7344 59.4037 12.5602 59.3656 14.4762H54.1579C54.3906 12.8225 55.7194 11.2479 57.9418 10.0256C58.5864 9.67108 59.2986 9.35117 60.0676 9.07235ZM60.4136 14.4762C60.4569 12.3852 60.758 10.4221 61.256 8.68757C62.9906 8.1895 64.9537 7.88843 67.0447 7.84517V10.1086C66.2646 12.1056 64.6736 13.6965 62.6765 14.4762H60.4136ZM59.3656 15.5241H54.1579C54.3906 17.1778 55.7194 18.7524 57.9418 19.9747C58.5864 20.3293 59.2986 20.6492 60.0676 20.928C59.6499 19.266 59.4037 17.4402 59.3656 15.5241ZM61.256 21.3128C60.758 19.5783 60.4569 17.6151 60.4136 15.5241H62.6765C64.6736 16.3039 66.2646 17.8948 67.0447 19.8918V22.1552C64.9537 22.1119 62.9906 21.8108 61.256 21.3128ZM60.4157 22.1531C59.3277 21.8064 58.3267 21.3823 57.4368 20.8928C56.3351 20.2869 55.3837 19.5678 54.653 18.7576C55.9326 23.1634 59.4053 26.6362 63.8112 27.9157C63.0009 27.185 62.2818 26.2337 61.6759 25.132C61.1865 24.2422 60.7624 23.2411 60.4157 22.1531ZM67.0447 28.4109C65.391 28.1782 63.8164 26.8494 62.594 24.627C62.2395 23.9824 61.9196 23.2702 61.6408 22.5013C63.3029 22.9189 65.1286 23.1652 67.0447 23.2032V28.4109ZM71.3261 27.9157C72.1363 27.185 72.8554 26.2337 73.4613 25.132C73.9505 24.2422 74.3752 23.2411 74.7216 22.1531C75.8095 21.8064 76.8104 21.3823 77.7004 20.8928C78.8021 20.2869 79.7537 19.5678 80.4843 18.7576C79.2043 23.1634 75.732 26.6362 71.3261 27.9157ZM73.4968 22.5013C73.2177 23.2702 72.8974 23.9824 72.543 24.627C71.3209 26.8494 69.7462 28.1782 68.0925 28.4109V23.2032C70.0086 23.1652 71.8344 22.9189 73.4968 22.5013ZM75.0695 20.928C75.8385 20.6492 76.551 20.3293 77.1953 19.9747C79.4182 18.7525 80.7467 17.1778 80.9793 15.5241H75.7718C75.7334 17.4402 75.487 19.266 75.0695 20.928ZM74.7238 15.5241C74.6803 17.6151 74.3795 19.5783 73.8809 21.3128C72.1467 21.8108 70.1836 22.1119 68.0925 22.1552V19.8935C68.8724 17.8957 70.4638 16.3041 72.4614 15.5241H74.7238ZM75.7718 14.4762H80.9793C80.7467 12.8225 79.4182 11.2479 77.1953 10.0256C76.551 9.67108 75.8385 9.35117 75.0695 9.07235C75.487 10.7344 75.7334 12.5602 75.7718 14.4762ZM73.8809 8.68757C74.3795 10.4221 74.6803 12.3852 74.7238 14.4762H72.4614C70.4638 13.6962 68.8724 12.1046 68.0925 10.1069V7.84517C70.1836 7.88843 72.1467 8.1895 73.8809 8.68757ZM74.7216 7.84727C75.8095 8.19393 76.8104 8.61806 77.7004 9.1075C78.8021 9.71341 79.7537 10.4325 80.4843 11.2427C79.2043 6.83693 75.732 3.36415 71.3261 2.08459C72.1363 2.81529 72.8554 3.76666 73.4613 4.86835C73.9505 5.75819 74.3752 6.75923 74.7216 7.84727ZM68.0925 1.58945C69.7462 1.82217 71.3209 3.15096 72.543 5.37334C72.8974 6.01798 73.2177 6.73015 73.4968 7.49912C71.8344 7.08145 70.0086 6.83521 68.0925 6.79713V1.58945Z" fill="black" fill-opacity="0.6"/>
</g>
<defs>
<clipPath id="clip0_320_186">
<rect width="158" height="28.9908" fill="white" transform="translate(0 0.504639)"/>
</clipPath>
</defs>
</svg>
