<svg width="135" height="26" viewBox="0 0 135 26" fill="none" xmlns="http://www.w3.org/2000/svg">
<g clip-path="url(#clip0_320_198)">
<path d="M32.7739 1.53357H36.1112V19.7365H41.6024V22.7704H32.7739V1.53357Z" fill="black" fill-opacity="0.6"/>
<path d="M47.908 23.0738C46.2698 23.0738 45.0158 22.6086 44.1461 21.6782C43.2764 20.7478 42.8416 19.4332 42.8416 17.7342V6.56977C42.8416 4.87082 43.2764 3.55616 44.1461 2.62579C45.0158 1.69541 46.2698 1.23022 47.908 1.23022C49.5463 1.23022 50.8002 1.69541 51.67 2.62579C52.5397 3.55616 52.9745 4.87082 52.9745 6.56977V17.7342C52.9745 19.4332 52.5397 20.7478 51.67 21.6782C50.8002 22.6086 49.5463 23.0738 47.908 23.0738ZM47.908 20.04C49.0609 20.04 49.6373 19.3421 49.6373 17.9466V6.3574C49.6373 4.96183 49.0609 4.26405 47.908 4.26405C46.7551 4.26405 46.1787 4.96183 46.1787 6.3574V17.9466C46.1787 19.3421 46.7551 20.04 47.908 20.04Z" fill="black" fill-opacity="0.6"/>
<path d="M59.9643 23.0738C58.3462 23.0738 57.1125 22.6187 56.2629 21.7085C55.4135 20.7782 54.9888 19.4534 54.9888 17.7342V6.56977C54.9888 4.8506 55.4135 3.53593 56.2629 2.62579C57.1125 1.69541 58.3462 1.23022 59.9643 1.23022C61.5823 1.23022 62.816 1.69541 63.6655 2.62579C64.515 3.53593 64.9398 4.8506 64.9398 6.56977V8.39006H61.7845V6.3574C61.7845 4.96183 61.2081 4.26405 60.0552 4.26405C58.9024 4.26405 58.326 4.96183 58.326 6.3574V17.977C58.326 19.3523 58.9024 20.04 60.0552 20.04C61.2081 20.04 61.7845 19.3523 61.7845 17.977V13.8206H60.116V10.7868H64.9398V17.7342C64.9398 19.4534 64.515 20.7782 63.6655 21.7085C62.816 22.6187 61.5823 23.0738 59.9643 23.0738Z" fill="black" fill-opacity="0.6"/>
<path d="M71.9061 23.0738C70.2678 23.0738 69.0139 22.6086 68.1442 21.6782C67.2744 20.7478 66.8396 19.4332 66.8396 17.7342V6.56977C66.8396 4.87082 67.2744 3.55616 68.1442 2.62579C69.0139 1.69541 70.2678 1.23022 71.9061 1.23022C73.5444 1.23022 74.7984 1.69541 75.668 2.62579C76.5378 3.55616 76.9726 4.87082 76.9726 6.56977V17.7342C76.9726 19.4332 76.5378 20.7478 75.668 21.6782C74.7984 22.6086 73.5444 23.0738 71.9061 23.0738ZM71.9061 20.04C73.0589 20.04 73.6354 19.3421 73.6354 17.9466V6.3574C73.6354 4.96183 73.0589 4.26405 71.9061 4.26405C70.7533 4.26405 70.1768 4.96183 70.1768 6.3574V17.9466C70.1768 19.3421 70.7533 20.04 71.9061 20.04Z" fill="black" fill-opacity="0.6"/>
<path d="M79.2358 1.53357H82.5731V22.7704H79.2358V1.53357Z" fill="black" fill-opacity="0.6"/>
<path d="M85.0723 1.53357H89.987C91.6453 1.53357 92.8893 1.97853 93.7188 2.86846C94.5484 3.75838 94.9628 5.06292 94.9628 6.78209V8.87542C94.9628 10.5946 94.5484 11.8991 93.7188 12.7891C92.8893 13.679 91.6453 14.1239 89.987 14.1239H88.4098V22.7704H85.0723V1.53357ZM89.987 11.0901C90.5334 11.0901 90.9377 10.9384 91.2009 10.6351C91.4841 10.3316 91.6253 9.81593 91.6253 9.08778V6.56973C91.6253 5.8416 91.4841 5.32585 91.2009 5.02247C90.9377 4.71909 90.5334 4.5674 89.987 4.5674H88.4098V11.0901H89.987Z" fill="black" fill-opacity="0.6"/>
<path d="M101.232 23.0738C99.6143 23.0738 98.3904 22.6187 97.5608 21.7085C96.7321 20.7782 96.3169 19.4534 96.3169 17.7342V16.5207H99.4723V17.977C99.4723 19.3523 100.049 20.04 101.202 20.04C101.768 20.04 102.192 19.8781 102.476 19.5546C102.779 19.2107 102.931 18.6646 102.931 17.9163C102.931 17.0264 102.729 16.2477 102.324 15.5803C101.92 14.8925 101.171 14.0734 100.079 13.1228C98.7037 11.9093 97.743 10.8171 97.1966 9.8463C96.6511 8.85524 96.3779 7.74284 96.3779 6.50909C96.3779 4.83037 96.8023 3.53593 97.6519 2.62579C98.5015 1.69541 99.7354 1.23022 101.354 1.23022C102.951 1.23022 104.155 1.69541 104.963 2.62579C105.793 3.53593 106.207 4.8506 106.207 6.56977V7.44958H103.052V6.3574C103.052 5.62928 102.911 5.10341 102.628 4.7798C102.344 4.43597 101.93 4.26405 101.384 4.26405C100.271 4.26405 99.7154 4.94161 99.7154 6.29672C99.7154 7.06529 99.9175 7.78329 100.322 8.45073C100.746 9.11815 101.505 9.92716 102.598 10.8778C103.993 12.0913 104.953 13.1936 105.48 14.1847C106.005 15.1758 106.268 16.3387 106.268 17.6736C106.268 19.413 105.833 20.7478 104.963 21.6782C104.114 22.6086 102.87 23.0738 101.232 23.0738Z" fill="black" fill-opacity="0.6"/>
<path d="M113.036 23.0737C111.418 23.0737 110.184 22.6187 109.335 21.7085C108.485 20.7782 108.061 19.4534 108.061 17.7342V1.53357H111.398V17.977C111.398 18.705 111.539 19.2309 111.822 19.5546C112.126 19.8781 112.551 20.0399 113.096 20.0399C113.643 20.0399 114.057 19.8781 114.34 19.5546C114.644 19.2309 114.796 18.705 114.796 17.977V1.53357H118.011V17.7342C118.011 19.4534 117.587 20.7782 116.737 21.7085C115.888 22.6187 114.654 23.0737 113.036 23.0737Z" fill="black" fill-opacity="0.6"/>
<path d="M120.388 1.53357H125.151L127.275 16.733H127.335L129.46 1.53357H134.222V22.7704H131.067V6.69108H131.007L128.579 22.7704H125.788L123.361 6.69108H123.301V22.7704H120.388V1.53357Z" fill="black" fill-opacity="0.6"/>
<path d="M0.555664 22.7705C4.6613 22.7705 7.98955 19.4422 7.98955 15.3366C7.98955 11.231 4.6613 7.90271 0.555664 7.90271V13.1064C1.78734 13.1064 2.78582 14.1049 2.78582 15.3366C2.78582 16.5683 1.78734 17.5668 0.555664 17.5668V22.7705Z" fill="black" fill-opacity="0.6"/>
<path d="M25.3352 10.3807C24.0649 9.97823 22.7121 9.76111 21.3085 9.76111C13.9526 9.76111 7.9895 15.7243 7.9895 23.0802C7.9895 23.8185 8.04958 24.5428 8.16509 25.2484H16.4406C16.1452 24.5861 15.981 23.8523 15.981 23.0802C15.981 20.1378 18.3662 17.7525 21.3085 17.7525C22.9167 17.7525 24.3584 18.4651 25.3352 19.5916V10.3807Z" fill="black" fill-opacity="0.6"/>
<path d="M1.86279 0.46875C2.47911 6.0441 7.20594 10.3806 12.9456 10.3806C18.6852 10.3806 23.412 6.0441 24.0283 0.46875H16.0538C15.5615 1.70291 14.3554 2.57501 12.9456 2.57501C11.5357 2.57501 10.3296 1.70291 9.83726 0.46875H1.86279Z" fill="black" fill-opacity="0.6"/>
</g>
<defs>
<clipPath id="clip0_320_198">
<rect width="133.667" height="25.0625" fill="white" transform="translate(0.555664 0.46875)"/>
</clipPath>
</defs>
</svg>
