<svg width="420" height="237" viewBox="0 0 420 237" fill="none" xmlns="http://www.w3.org/2000/svg">
<path d="M66.1118 95.739V66.2319H57V60.5665H81.5499V66.2319H72.5797V95.739H66.1118Z" fill="black"/>
<path d="M92.2174 96.3055C90.2346 96.3055 88.5035 95.8649 87.0242 94.9836C85.5764 94.1023 84.459 92.8748 83.6722 91.3011C82.9168 89.7274 82.5391 87.8862 82.5391 85.7774V70.056H88.7238V85.2581C88.7238 86.3282 88.9284 87.2724 89.3375 88.0907C89.7782 88.8776 90.3919 89.5071 91.1788 89.9792C91.9971 90.4198 92.9099 90.6402 93.917 90.6402C94.9242 90.6402 95.8212 90.4198 96.6081 89.9792C97.3949 89.5071 98.0087 88.8619 98.4493 88.0435C98.89 87.2252 99.1103 86.2495 99.1103 85.1164V70.056H105.295V95.739H99.4408V90.6874L99.9601 91.5844C99.3621 93.1581 98.3706 94.3384 96.9858 95.1252C95.6324 95.9121 94.0429 96.3055 92.2174 96.3055Z" fill="black"/>
<path d="M111.044 95.739V70.056H116.851V75.1076L116.379 74.2106C116.977 72.6684 117.953 71.5038 119.306 70.717C120.691 69.8986 122.296 69.4895 124.122 69.4895C126.01 69.4895 127.678 69.8986 129.126 70.717C130.605 71.5353 131.754 72.6841 132.572 74.1634C133.391 75.6112 133.8 77.2951 133.8 79.215V95.739H127.615V80.6786C127.615 79.5455 127.395 78.5698 126.954 77.7515C126.514 76.9331 125.9 76.3036 125.113 75.863C124.358 75.3909 123.461 75.1548 122.422 75.1548C121.415 75.1548 120.518 75.3909 119.731 75.863C118.944 76.3036 118.33 76.9331 117.89 77.7515C117.449 78.5698 117.229 79.5455 117.229 80.6786V95.739H111.044Z" fill="black"/>
<path d="M139.03 95.739V70.056H144.837V75.1076L144.365 74.2106C144.963 72.6684 145.938 71.5038 147.292 70.717C148.677 69.8986 150.282 69.4895 152.107 69.4895C153.996 69.4895 155.664 69.8986 157.112 70.717C158.591 71.5353 159.74 72.6841 160.558 74.1634C161.376 75.6112 161.786 77.2951 161.786 79.215V95.739H155.601V80.6786C155.601 79.5455 155.381 78.5698 154.94 77.7515C154.499 76.9331 153.886 76.3036 153.099 75.863C152.343 75.3909 151.446 75.1548 150.408 75.1548C149.4 75.1548 148.503 75.3909 147.717 75.863C146.93 76.3036 146.316 76.9331 145.875 77.7515C145.435 78.5698 145.214 79.5455 145.214 80.6786V95.739H139.03Z" fill="black"/>
<path d="M179.196 96.3055C176.552 96.3055 174.239 95.7075 172.256 94.5115C170.273 93.3155 168.731 91.6945 167.629 89.6487C166.527 87.6029 165.977 85.3367 165.977 82.8503C165.977 80.2694 166.527 77.9875 167.629 76.0046C168.762 73.9903 170.289 72.4008 172.209 71.2363C174.16 70.0717 176.332 69.4895 178.724 69.4895C180.738 69.4895 182.501 69.82 184.011 70.4809C185.554 71.1419 186.86 72.0546 187.93 73.2192C189 74.3837 189.818 75.7214 190.385 77.2321C190.951 78.7114 191.235 80.3166 191.235 82.0477C191.235 82.4883 191.203 82.9447 191.14 83.4168C191.109 83.8889 191.03 84.2981 190.904 84.6443H171.075V79.9232H187.411L184.483 82.1421C184.767 80.6943 184.688 79.4039 184.247 78.2708C183.838 77.1377 183.146 76.2407 182.17 75.5797C181.226 74.9188 180.077 74.5883 178.724 74.5883C177.433 74.5883 176.284 74.9188 175.277 75.5797C174.27 76.2092 173.499 77.1534 172.964 78.4124C172.46 79.6399 172.271 81.1349 172.397 82.8975C172.271 84.4712 172.476 85.8718 173.011 87.0993C173.578 88.2953 174.396 89.2238 175.466 89.8848C176.568 90.5457 177.827 90.8762 179.243 90.8762C180.659 90.8762 181.855 90.5772 182.831 89.9792C183.838 89.3812 184.625 88.5786 185.192 87.5714L190.196 90.0264C189.692 91.2539 188.906 92.3398 187.835 93.284C186.765 94.2282 185.491 94.9679 184.011 95.5029C182.564 96.038 180.958 96.3055 179.196 96.3055Z" fill="black"/>
<path d="M195.923 95.739V60H202.108V95.739H195.923Z" fill="black"/>
<path d="M229.287 96.3055C227.052 96.3055 224.975 95.8963 223.055 95.078C221.166 94.2597 219.53 93.1266 218.145 91.6788C216.791 90.1995 215.8 88.4842 215.17 86.5328L220.505 84.2194C221.355 86.2338 222.583 87.8232 224.188 88.9878C225.793 90.1208 227.603 90.6874 229.617 90.6874C230.75 90.6874 231.726 90.5143 232.544 90.168C233.394 89.7903 234.039 89.2868 234.48 88.6573C234.952 88.0278 235.188 87.2724 235.188 86.3911C235.188 85.3525 234.873 84.5027 234.244 83.8417C233.646 83.1493 232.733 82.6142 231.506 82.2365L224.754 80.0648C222.016 79.215 219.955 77.9403 218.57 76.2407C217.185 74.5411 216.492 72.5425 216.492 70.2449C216.492 68.2305 216.98 66.4522 217.956 64.91C218.963 63.3677 220.348 62.1717 222.111 61.3219C223.905 60.4406 225.95 60 228.248 60C230.357 60 232.292 60.3777 234.055 61.1331C235.818 61.857 237.328 62.8799 238.587 64.2018C239.878 65.4923 240.838 67.0188 241.467 68.7813L236.18 71.1419C235.487 69.3793 234.448 68.0259 233.064 67.0817C231.679 66.106 230.074 65.6181 228.248 65.6181C227.178 65.6181 226.234 65.807 225.415 66.1847C224.597 66.5309 223.952 67.0345 223.48 67.6954C223.039 68.3249 222.819 69.0803 222.819 69.9616C222.819 70.9373 223.133 71.8028 223.763 72.5582C224.392 73.2821 225.352 73.8487 226.643 74.2578L233.111 76.2879C235.912 77.2007 238.005 78.4596 239.39 80.0648C240.806 81.67 241.514 83.6529 241.514 86.0134C241.514 88.0278 240.995 89.8061 239.956 91.3483C238.918 92.8906 237.486 94.1023 235.66 94.9836C233.835 95.8649 231.71 96.3055 229.287 96.3055Z" fill="black"/>
<path d="M258.485 96.0222C255.589 96.0222 253.339 95.2354 251.734 93.6617C250.16 92.0565 249.373 89.8061 249.373 86.9105V75.5797H244.935V70.056H245.407C246.666 70.056 247.642 69.7255 248.335 69.0646C249.027 68.4036 249.373 67.4437 249.373 66.1847V64.2018H255.558V70.056H261.459V75.5797H255.558V86.58C255.558 87.4298 255.7 88.1537 255.983 88.7517C256.298 89.3497 256.77 89.8061 257.399 90.1208C258.06 90.4356 258.894 90.5929 259.901 90.5929C260.122 90.5929 260.373 90.5772 260.657 90.5457C260.971 90.5143 261.27 90.4828 261.554 90.4513V95.739C261.113 95.8019 260.61 95.8649 260.043 95.9278C259.476 95.9908 258.957 96.0222 258.485 96.0222Z" fill="black"/>
<path d="M275.438 96.3055C273.455 96.3055 271.724 95.8649 270.245 94.9836C268.797 94.1023 267.68 92.8748 266.893 91.3011C266.137 89.7274 265.76 87.8862 265.76 85.7774V70.056H271.944V85.2581C271.944 86.3282 272.149 87.2724 272.558 88.0907C272.999 88.8776 273.612 89.5071 274.399 89.9792C275.218 90.4198 276.13 90.6402 277.138 90.6402C278.145 90.6402 279.042 90.4198 279.829 89.9792C280.615 89.5071 281.229 88.8619 281.67 88.0435C282.11 87.2252 282.331 86.2495 282.331 85.1164V70.056H288.515V95.739H282.661V90.6874L283.181 91.5844C282.583 93.1581 281.591 94.3384 280.206 95.1252C278.853 95.9121 277.263 96.3055 275.438 96.3055Z" fill="black"/>
<path d="M306.209 96.3055C303.723 96.3055 301.504 95.7232 299.552 94.5587C297.601 93.3627 296.059 91.7418 294.926 89.6959C293.792 87.6501 293.226 85.384 293.226 82.8975C293.226 80.3796 293.792 78.1134 294.926 76.0991C296.059 74.0847 297.601 72.4795 299.552 71.2835C301.535 70.0875 303.738 69.4895 306.162 69.4895C308.113 69.4895 309.844 69.8829 311.355 70.6698C312.897 71.4251 314.109 72.4953 314.99 73.8801L314.046 75.1548V60H320.231V95.739H314.377V90.7818L315.038 92.0093C314.156 93.3941 312.929 94.4643 311.355 95.2196C309.781 95.9436 308.066 96.3055 306.209 96.3055ZM306.87 90.6402C308.286 90.6402 309.53 90.3097 310.6 89.6487C311.67 88.9878 312.504 88.075 313.102 86.9105C313.731 85.7459 314.046 84.4083 314.046 82.8975C314.046 81.4182 313.731 80.0963 313.102 78.9317C312.504 77.7357 311.67 76.8072 310.6 76.1463C309.53 75.4853 308.286 75.1548 306.87 75.1548C305.485 75.1548 304.242 75.5011 303.14 76.1935C302.039 76.8544 301.173 77.7672 300.544 78.9317C299.946 80.0648 299.647 81.3867 299.647 82.8975C299.647 84.4083 299.946 85.7459 300.544 86.9105C301.173 88.075 302.039 88.9878 303.14 89.6487C304.242 90.3097 305.485 90.6402 306.87 90.6402Z" fill="black"/>
<path d="M325.985 95.739V70.056H332.169V95.739H325.985ZM325.985 67.1761V60.5665H332.169V67.1761H325.985Z" fill="black"/>
<path d="M350.438 96.3055C347.92 96.3055 345.622 95.7232 343.545 94.5587C341.499 93.3941 339.863 91.8047 338.635 89.7903C337.439 87.776 336.841 85.4784 336.841 82.8975C336.841 80.3166 337.439 78.019 338.635 76.0046C339.863 73.9903 341.499 72.4008 343.545 71.2363C345.591 70.0717 347.888 69.4895 350.438 69.4895C352.956 69.4895 355.238 70.0717 357.284 71.2363C359.329 72.4008 360.95 73.9903 362.146 76.0046C363.374 77.9875 363.988 80.2851 363.988 82.8975C363.988 85.4784 363.374 87.776 362.146 89.7903C360.919 91.8047 359.282 93.3941 357.236 94.5587C355.191 95.7232 352.924 96.3055 350.438 96.3055ZM350.438 90.6402C351.823 90.6402 353.035 90.3097 354.073 89.6487C355.143 88.9878 355.977 88.075 356.575 86.9105C357.205 85.7144 357.52 84.3768 357.52 82.8975C357.52 81.3867 357.205 80.0648 356.575 78.9317C355.977 77.7672 355.143 76.8544 354.073 76.1935C353.035 75.5011 351.823 75.1548 350.438 75.1548C349.022 75.1548 347.778 75.5011 346.708 76.1935C345.638 76.8544 344.788 77.7672 344.159 78.9317C343.561 80.0648 343.262 81.3867 343.262 82.8975C343.262 84.3768 343.561 85.7144 344.159 86.9105C344.788 88.075 345.638 88.9878 346.708 89.6487C347.778 90.3097 349.022 90.6402 350.438 90.6402Z" fill="black"/>
<rect x="37" y="140" width="176.79" height="44.5594" rx="22.2797" fill="black"/>
<path d="M76.0444 155.6V169.78H74.6185V155.6H76.0444ZM81.4132 156.867C81.4132 158.115 80.5022 159.165 79.2743 159.343V158.61C79.9675 158.471 80.4824 157.976 80.4824 157.422C80.3635 157.501 80.1853 157.541 79.9477 157.541C79.4327 157.541 78.9773 157.164 78.9773 156.491C78.9773 155.818 79.4526 155.323 80.1457 155.323C80.819 155.323 81.4132 155.897 81.4132 156.867ZM85.4159 169.78H84.0494V160.194H85.2377L85.3961 161.561C85.8714 160.551 86.9409 159.937 88.2875 159.937C89.7927 159.937 90.9215 160.729 91.377 161.977C91.8127 160.729 92.9811 159.937 94.5259 159.937C96.6053 159.937 97.9718 161.284 97.9718 163.502V169.78H96.6449V163.779C96.6449 162.135 95.7339 161.165 94.2684 161.165C92.6643 161.165 91.7137 162.373 91.7137 163.858V169.78H90.367V163.759C90.367 162.135 89.4362 161.185 87.9905 161.185C86.3863 161.185 85.4159 162.373 85.4159 163.838V169.78ZM108.966 170.017C106.926 170.017 105.718 168.869 105.718 167.185C105.718 165.423 107.065 164.314 109.303 164.135L112.471 163.878V163.561C112.471 161.68 111.342 161.086 109.936 161.086C108.273 161.086 107.283 161.838 107.283 163.125H106.035C106.035 161.185 107.619 159.937 109.976 159.937C112.194 159.937 113.818 161.046 113.818 163.581V169.78H112.669L112.491 168.096C111.897 169.304 110.59 170.017 108.966 170.017ZM109.283 168.908C111.303 168.908 112.471 167.502 112.471 165.423V164.908L109.639 165.126C107.837 165.284 107.104 166.076 107.104 167.146C107.104 168.314 107.976 168.908 109.283 168.908ZM123.241 169.78H122.053V155.342H123.419V162.056C124.092 160.65 125.4 159.937 127.023 159.937C129.816 159.937 131.44 162.115 131.44 165.007C131.44 167.878 129.776 170.017 126.984 170.017C125.38 170.017 124.053 169.304 123.379 167.819L123.241 169.78ZM123.439 164.967C123.439 167.185 124.667 168.77 126.766 168.77C128.845 168.77 130.054 167.185 130.054 164.967C130.054 162.769 128.845 161.165 126.766 161.165C124.667 161.165 123.439 162.769 123.439 164.967ZM140.119 160.194H141.486V169.78H140.298L140.119 168.156C139.585 169.265 138.258 170.017 136.753 170.017C134.495 170.017 133.267 168.473 133.267 166.136V160.175H134.653V165.7C134.653 167.977 135.663 168.789 137.188 168.789C139.03 168.789 140.119 167.562 140.119 165.284V160.194ZM146.531 169.78H145.184V161.343H143.263V160.194H145.184V157.164H146.531V160.194H148.452V161.343H146.531V169.78ZM152.507 169.78H151.16V161.343H149.239V160.194H151.16V157.164H152.507V160.194H154.428V161.343H152.507V169.78ZM155.437 164.987C155.437 162.056 157.497 159.937 160.309 159.937C163.121 159.937 165.181 162.056 165.181 164.987C165.181 167.898 163.121 170.017 160.309 170.017C157.497 170.017 155.437 167.898 155.437 164.987ZM156.823 164.967C156.823 167.225 158.249 168.789 160.309 168.789C162.349 168.789 163.794 167.225 163.794 164.967C163.794 162.749 162.349 161.165 160.309 161.165C158.249 161.165 156.823 162.749 156.823 164.967ZM168.733 169.78H167.366V160.194H168.555L168.753 161.858C169.386 160.63 170.654 159.937 172.04 159.937C174.674 159.937 175.763 161.502 175.763 163.918V169.78H174.397V164.215C174.397 161.977 173.387 161.185 171.802 161.185C169.842 161.185 168.733 162.611 168.733 164.769V169.78Z" fill="white"/>
<circle cx="257.213" cy="162" r="19.9149" fill="#FC5071"/>
<g clip-path="url(#clip0_641_463)">
<path d="M264.515 156.033C264.515 156.033 263.176 156.824 262.431 157.048C262.031 156.589 261.5 156.263 260.909 156.115C260.318 155.967 259.696 156.004 259.126 156.221C258.557 156.439 258.069 156.825 257.726 157.329C257.384 157.834 257.205 158.431 257.213 159.04V159.704C256.047 159.734 254.891 159.475 253.848 158.95C252.806 158.426 251.909 157.651 251.239 156.696C251.239 156.696 248.583 162.671 254.558 165.326C253.191 166.254 251.562 166.72 249.911 166.654C255.886 169.973 263.188 166.654 263.188 159.02C263.187 158.835 263.169 158.65 263.135 158.469C263.812 157.801 264.515 156.033 264.515 156.033Z" stroke="white" stroke-width="0.995745" stroke-linecap="round" stroke-linejoin="round"/>
</g>
<circle cx="307" cy="162" r="19.9149" fill="#FC5071"/>
<path d="M312.497 158.957V164.213C312.497 166.027 311.027 167.497 309.212 167.497H303.957C302.143 167.497 300.673 166.027 300.673 164.213V158.957C300.673 157.143 302.143 155.673 303.957 155.673H309.212C311.027 155.673 312.497 157.143 312.497 158.957Z" stroke="white" stroke-width="0.985372" stroke-linecap="round" stroke-linejoin="round"/>
<path d="M303.301 164.87V162.571V160.271" stroke="white" stroke-width="0.985372" stroke-linecap="round" stroke-linejoin="round"/>
<path d="M305.928 164.87V162.735M305.928 160.271V162.735M305.928 162.735C305.928 160.271 309.869 160.271 309.869 162.735V164.87" stroke="white" stroke-width="0.985372" stroke-linecap="round" stroke-linejoin="round"/>
<path d="M303.301 158.309L303.31 158.3" stroke="white" stroke-width="0.985372" stroke-linecap="round" stroke-linejoin="round"/>
<circle cx="356.787" cy="162" r="19.9149" fill="#FC5071"/>
<path d="M357.202 165.043C358.653 165.043 359.83 163.866 359.83 162.415C359.83 160.964 358.653 159.787 357.202 159.787C355.751 159.787 354.574 160.964 354.574 162.415C354.574 163.866 355.751 165.043 357.202 165.043Z" stroke="white" stroke-width="0.985372" stroke-linecap="round" stroke-linejoin="round"/>
<path d="M351.29 165.042V159.787C351.29 157.973 352.761 156.503 354.575 156.503H359.83C361.644 156.503 363.115 157.973 363.115 159.787V165.042C363.115 166.856 361.644 168.327 359.83 168.327H354.575C352.761 168.327 351.29 166.856 351.29 165.042Z" stroke="white" stroke-width="0.985372"/>
<path d="M360.815 158.811L360.824 158.801" stroke="white" stroke-width="0.985372" stroke-linecap="round" stroke-linejoin="round"/>
<defs>
<clipPath id="clip0_641_463">
<rect width="15.9319" height="15.9319" fill="white" transform="translate(249.247 154.034)"/>
</clipPath>
</defs>
</svg>
