<svg width="229" height="28" viewBox="0 0 229 28" fill="none" xmlns="http://www.w3.org/2000/svg">
<path d="M6.79701 27.5006V5.48956H0V1.26343H18.3132V5.48956H11.6218V27.5006H6.79701Z" fill="white"/>
<path d="M26.2707 27.9232C24.7916 27.9232 23.5003 27.5945 22.3968 26.9371C21.3168 26.2797 20.4833 25.3641 19.8963 24.1901C19.3329 23.0162 19.0511 21.6427 19.0511 20.0697V8.34219H23.6646V19.6823C23.6646 20.4806 23.8172 21.1849 24.1225 21.7953C24.4512 22.3823 24.909 22.8519 25.496 23.2041C26.1064 23.5328 26.7873 23.6971 27.5386 23.6971C28.2899 23.6971 28.959 23.5328 29.546 23.2041C30.133 22.8519 30.5908 22.3706 30.9195 21.7601C31.2482 21.1497 31.4125 20.4219 31.4125 19.5766V8.34219H36.026V27.5006H31.6591V23.7323L32.0464 24.4015C31.6004 25.5754 30.8608 26.4558 29.8277 27.0428C28.8182 27.6297 27.6325 27.9232 26.2707 27.9232Z" fill="white"/>
<path d="M40.3146 27.5006V8.34219H44.6464V12.1105L44.2942 11.4413C44.7403 10.2909 45.4681 9.4222 46.4777 8.83524C47.5108 8.2248 48.7082 7.91957 50.0699 7.91957C51.4786 7.91957 52.723 8.2248 53.803 8.83524C54.9065 9.44568 55.7635 10.3026 56.3739 11.4061C56.9843 12.4861 57.2896 13.7422 57.2896 15.1744V27.5006H52.676V16.2662C52.676 15.4209 52.5117 14.6931 52.183 14.0827C51.8543 13.4722 51.3965 13.0027 50.8095 12.674C50.246 12.3218 49.5769 12.1457 48.8021 12.1457C48.0508 12.1457 47.3816 12.3218 46.7947 12.674C46.2077 13.0027 45.7499 13.4722 45.4212 14.0827C45.0925 14.6931 44.9281 15.4209 44.9281 16.2662V27.5006H40.3146Z" fill="white"/>
<path d="M61.1907 27.5006V8.34219H65.5225V12.1105L65.1703 11.4413C65.6164 10.2909 66.3443 9.4222 67.3538 8.83524C68.3869 8.2248 69.5843 7.91957 70.946 7.91957C72.3547 7.91957 73.5991 8.2248 74.6791 8.83524C75.7826 9.44568 76.6396 10.3026 77.25 11.4061C77.8604 12.4861 78.1657 13.7422 78.1657 15.1744V27.5006H73.5521V16.2662C73.5521 15.4209 73.3878 14.6931 73.0591 14.0827C72.7304 13.4722 72.2726 13.0027 71.6856 12.674C71.1221 12.3218 70.453 12.1457 69.6782 12.1457C68.9269 12.1457 68.2578 12.3218 67.6708 12.674C67.0838 13.0027 66.626 13.4722 66.2973 14.0827C65.9686 14.6931 65.8042 15.4209 65.8042 16.2662V27.5006H61.1907Z" fill="white"/>
<path d="M91.153 27.9232C89.1808 27.9232 87.4551 27.4771 85.976 26.585C84.4969 25.6928 83.3464 24.4836 82.5247 22.9575C81.7029 21.4314 81.2921 19.741 81.2921 17.8862C81.2921 15.9609 81.7029 14.2588 82.5247 12.7796C83.3699 11.277 84.5086 10.0913 85.9408 9.22263C87.3964 8.35393 89.0165 7.91957 90.8008 7.91957C92.3035 7.91957 93.6182 8.1661 94.7452 8.65915C95.8957 9.1522 96.87 9.83307 97.6683 10.7018C98.4665 11.5705 99.077 12.5683 99.4996 13.6953C99.9222 14.7988 100.134 15.9962 100.134 17.2875C100.134 17.6162 100.11 17.9566 100.063 18.3088C100.04 18.661 99.9809 18.9662 99.887 19.2245H85.0956V15.7027H97.2809L95.0974 17.3579C95.3087 16.2779 95.25 15.3153 94.9213 14.4701C94.6161 13.6248 94.0996 12.9557 93.3717 12.4627C92.6674 11.9696 91.8104 11.7231 90.8008 11.7231C89.8382 11.7231 88.9812 11.9696 88.2299 12.4627C87.4786 12.9322 86.9034 13.6366 86.5043 14.5757C86.1286 15.4914 85.9877 16.6066 86.0817 17.9214C85.9877 19.0953 86.1404 20.1401 86.5395 21.0558C86.9621 21.948 87.5725 22.6406 88.3708 23.1336C89.1926 23.6267 90.1317 23.8732 91.1882 23.8732C92.2448 23.8732 93.1369 23.6501 93.8648 23.2041C94.6161 22.758 95.203 22.1593 95.6256 21.408L99.3587 23.2393C98.9831 24.1549 98.3961 24.9649 97.5978 25.6693C96.7996 26.3736 95.8487 26.9254 94.7452 27.3245C93.6652 27.7237 92.4678 27.9232 91.153 27.9232Z" fill="white"/>
<path d="M103.631 27.5006V0.84082H108.244V27.5006H103.631Z" fill="white"/>
<path d="M128.519 27.9232C126.852 27.9232 125.302 27.618 123.87 27.0076C122.461 26.3971 121.24 25.5519 120.207 24.4719C119.198 23.3684 118.458 22.0888 117.989 20.6332L121.968 18.9075C122.602 20.4101 123.518 21.5958 124.715 22.4645C125.913 23.3097 127.263 23.7323 128.765 23.7323C129.61 23.7323 130.338 23.6032 130.949 23.3449C131.583 23.0632 132.064 22.6875 132.393 22.218C132.745 21.7484 132.921 21.1849 132.921 20.5275C132.921 19.7527 132.686 19.1188 132.217 18.6258C131.77 18.1092 131.09 17.7101 130.174 17.4284L125.138 15.8083C123.095 15.1744 121.557 14.2235 120.524 12.9557C119.491 11.6879 118.975 10.197 118.975 8.48306C118.975 6.98044 119.339 5.6539 120.066 4.50346C120.818 3.35302 121.851 2.46083 123.166 1.82692C124.504 1.16952 126.03 0.84082 127.744 0.84082C129.317 0.84082 130.761 1.12256 132.076 1.68604C133.39 2.22605 134.517 2.9891 135.457 3.97519C136.419 4.93781 137.135 6.07652 137.605 7.39131L133.66 9.15219C133.144 7.8374 132.369 6.82783 131.336 6.12347C130.303 5.39564 129.106 5.03173 127.744 5.03173C126.946 5.03173 126.241 5.1726 125.631 5.45434C125.02 5.7126 124.539 6.08826 124.187 6.5813C123.858 7.05087 123.694 7.61436 123.694 8.27175C123.694 8.99959 123.929 9.64524 124.398 10.2087C124.868 10.7487 125.584 11.1713 126.547 11.4766L131.371 12.9909C133.461 13.6718 135.022 14.6109 136.055 15.8083C137.112 17.0057 137.64 18.4849 137.64 20.2458C137.64 21.7484 137.253 23.0749 136.478 24.2254C135.703 25.3758 134.635 26.2797 133.273 26.9371C131.911 27.5945 130.327 27.9232 128.519 27.9232Z" fill="white"/>
<path d="M150.299 27.7119C148.139 27.7119 146.461 27.125 145.263 25.951C144.089 24.7536 143.502 23.0749 143.502 20.9149V12.4627H140.192V8.34219H140.544C141.483 8.34219 142.211 8.09566 142.728 7.60262C143.244 7.10957 143.502 6.39348 143.502 5.45434V3.97519H148.116V8.34219H152.518V12.4627H148.116V20.6684C148.116 21.3023 148.222 21.8423 148.433 22.2884C148.668 22.7345 149.02 23.0749 149.489 23.3097C149.982 23.5445 150.605 23.6619 151.356 23.6619C151.52 23.6619 151.708 23.6501 151.919 23.6267C152.154 23.6032 152.377 23.5797 152.589 23.5562V27.5006C152.26 27.5476 151.884 27.5945 151.462 27.6415C151.039 27.6884 150.652 27.7119 150.299 27.7119Z" fill="white"/>
<path d="M162.946 27.9232C161.467 27.9232 160.175 27.5945 159.072 26.9371C157.992 26.2797 157.158 25.3641 156.571 24.1901C156.008 23.0162 155.726 21.6427 155.726 20.0697V8.34219H160.34V19.6823C160.34 20.4806 160.492 21.1849 160.797 21.7953C161.126 22.3823 161.584 22.8519 162.171 23.2041C162.781 23.5328 163.462 23.6971 164.213 23.6971C164.965 23.6971 165.634 23.5328 166.221 23.2041C166.808 22.8519 167.266 22.3706 167.594 21.7601C167.923 21.1497 168.087 20.4219 168.087 19.5766V8.34219H172.701V27.5006H168.334V23.7323L168.721 24.4015C168.275 25.5754 167.536 26.4558 166.503 27.0428C165.493 27.6297 164.307 27.9232 162.946 27.9232Z" fill="white"/>
<path d="M185.9 27.9232C184.045 27.9232 182.39 27.4889 180.934 26.6202C179.478 25.728 178.328 24.5189 177.483 22.9928C176.637 21.4667 176.215 19.7762 176.215 17.9214C176.215 16.0431 176.637 14.3527 177.483 12.8501C178.328 11.3474 179.478 10.15 180.934 9.25785C182.413 8.36567 184.057 7.91957 185.864 7.91957C187.32 7.91957 188.611 8.21306 189.738 8.80002C190.889 9.3635 191.793 10.1618 192.45 11.1948L191.746 12.1457V0.84082H196.359V27.5006H191.992V23.8028L192.485 24.7184C191.828 25.7515 190.912 26.5497 189.738 27.1132C188.564 27.6532 187.285 27.9232 185.9 27.9232ZM186.393 23.6971C187.449 23.6971 188.377 23.4506 189.175 22.9575C189.973 22.4645 190.595 21.7836 191.041 20.9149C191.511 20.0462 191.746 19.0484 191.746 17.9214C191.746 16.8179 191.511 15.8318 191.041 14.9631C190.595 14.0709 189.973 13.3783 189.175 12.8853C188.377 12.3922 187.449 12.1457 186.393 12.1457C185.36 12.1457 184.432 12.404 183.61 12.9205C182.789 13.4135 182.143 14.0944 181.673 14.9631C181.227 15.8083 181.004 16.7944 181.004 17.9214C181.004 19.0484 181.227 20.0462 181.673 20.9149C182.143 21.7836 182.789 22.4645 183.61 22.9575C184.432 23.4506 185.36 23.6971 186.393 23.6971Z" fill="white"/>
<path d="M200.651 27.5006V8.34219H205.265V27.5006H200.651ZM200.651 6.19391V1.26343H205.265V6.19391H200.651Z" fill="white"/>
<path d="M218.893 27.9232C217.014 27.9232 215.3 27.4889 213.751 26.6202C212.225 25.7515 211.004 24.5658 210.088 23.0632C209.196 21.5606 208.75 19.8466 208.75 17.9214C208.75 15.9962 209.196 14.2822 210.088 12.7796C211.004 11.277 212.225 10.0913 213.751 9.22263C215.277 8.35393 216.991 7.91957 218.893 7.91957C220.771 7.91957 222.473 8.35393 223.999 9.22263C225.525 10.0913 226.734 11.277 227.627 12.7796C228.542 14.2588 229 15.9727 229 17.9214C229 19.8466 228.542 21.5606 227.627 23.0632C226.711 24.5658 225.49 25.7515 223.964 26.6202C222.438 27.4889 220.747 27.9232 218.893 27.9232ZM218.893 23.6971C219.926 23.6971 220.829 23.4506 221.604 22.9575C222.403 22.4645 223.025 21.7836 223.471 20.9149C223.94 20.0227 224.175 19.0249 224.175 17.9214C224.175 16.7944 223.94 15.8083 223.471 14.9631C223.025 14.0944 222.403 13.4135 221.604 12.9205C220.829 12.404 219.926 12.1457 218.893 12.1457C217.836 12.1457 216.909 12.404 216.11 12.9205C215.312 13.4135 214.678 14.0944 214.209 14.9631C213.762 15.8083 213.539 16.7944 213.539 17.9214C213.539 19.0249 213.762 20.0227 214.209 20.9149C214.678 21.7836 215.312 22.4645 216.11 22.9575C216.909 23.4506 217.836 23.6971 218.893 23.6971Z" fill="white"/>
</svg>
