<svg width="159" height="19" viewBox="0 0 159 19" fill="none" xmlns="http://www.w3.org/2000/svg">
<path d="M4.70947 18.4718V3.22098H0V0.292816H12.6887V3.22098H8.05246V18.4718H4.70947Z" fill="black"/>
<path d="M18.2023 18.7647C17.1774 18.7647 16.2827 18.5369 15.5181 18.0814C14.7698 17.6259 14.1923 16.9915 13.7856 16.1781C13.3952 15.3647 13.2 14.4131 13.2 13.3232V5.19749H16.3966V13.0547C16.3966 13.6078 16.5023 14.0959 16.7138 14.5188C16.9416 14.9255 17.2588 15.2509 17.6655 15.4949C18.0884 15.7226 18.5602 15.8365 19.0807 15.8365C19.6013 15.8365 20.0649 15.7226 20.4716 15.4949C20.8783 15.2509 21.1955 14.9174 21.4233 14.4944C21.651 14.0715 21.7649 13.5672 21.7649 12.9815V5.19749H24.9615V18.4718H21.9357V15.8609L22.2041 16.3245C21.895 17.1379 21.3826 17.7479 20.6668 18.1546C19.9673 18.5613 19.1458 18.7647 18.2023 18.7647Z" fill="black"/>
<path d="M27.9329 18.4718V5.19749H30.9343V7.80844L30.6903 7.34482C30.9994 6.54771 31.5036 5.9458 32.2032 5.53911C32.9189 5.11616 33.7486 4.90468 34.6921 4.90468C35.6682 4.90468 36.5303 5.11616 37.2786 5.53911C38.0432 5.96207 38.637 6.55584 39.0599 7.32042C39.4829 8.06872 39.6944 8.93904 39.6944 9.93136V18.4718H36.4978V10.6878C36.4978 10.1022 36.3839 9.59788 36.1562 9.17492C35.9284 8.75196 35.6112 8.42661 35.2045 8.19886C34.8141 7.95485 34.3505 7.83284 33.8136 7.83284C33.2931 7.83284 32.8295 7.95485 32.4228 8.19886C32.0161 8.42661 31.6989 8.75196 31.4711 9.17492C31.2434 9.59788 31.1295 10.1022 31.1295 10.6878V18.4718H27.9329Z" fill="black"/>
<path d="M42.3974 18.4718V5.19749H45.3988V7.80844L45.1548 7.34482C45.4638 6.54771 45.9681 5.9458 46.6676 5.53911C47.3834 5.11616 48.2131 4.90468 49.1566 4.90468C50.1326 4.90468 50.9948 5.11616 51.7431 5.53911C52.5077 5.96207 53.1015 6.55584 53.5244 7.32042C53.9474 8.06872 54.1589 8.93904 54.1589 9.93136V18.4718H50.9623V10.6878C50.9623 10.1022 50.8484 9.59788 50.6207 9.17492C50.3929 8.75196 50.0757 8.42661 49.669 8.19886C49.2786 7.95485 48.815 7.83284 48.2781 7.83284C47.7576 7.83284 47.294 7.95485 46.8873 8.19886C46.4806 8.42661 46.1634 8.75196 45.9356 9.17492C45.7079 9.59788 45.594 10.1022 45.594 10.6878V18.4718H42.3974Z" fill="black"/>
<path d="M63.1575 18.7647C61.791 18.7647 60.5953 18.4556 59.5704 17.8374C58.5456 17.2192 57.7485 16.3815 57.1791 15.3241C56.6097 14.2667 56.3251 13.0954 56.3251 11.8103C56.3251 10.4763 56.6097 9.29693 57.1791 8.27207C57.7647 7.23094 58.5537 6.40943 59.546 5.80753C60.5546 5.20563 61.6771 4.90468 62.9134 4.90468C63.9546 4.90468 64.8655 5.07549 65.6464 5.41711C66.4435 5.75873 67.1186 6.23049 67.6717 6.83239C68.2248 7.43429 68.6478 8.12566 68.9406 8.90651C69.2334 9.67108 69.3798 10.5007 69.3798 11.3954C69.3798 11.6232 69.3635 11.8591 69.331 12.1031C69.3147 12.3471 69.2741 12.5586 69.209 12.7375H58.9604V10.2974H67.4033L65.8904 11.4442C66.0368 10.6959 65.9961 10.029 65.7684 9.44334C65.5569 8.8577 65.199 8.39408 64.6947 8.05246C64.2067 7.71084 63.6129 7.54003 62.9134 7.54003C62.2465 7.54003 61.6527 7.71084 61.1321 8.05246C60.6116 8.37781 60.213 8.86584 59.9365 9.51654C59.6762 10.151 59.5786 10.9237 59.6437 11.8347C59.5786 12.6481 59.6843 13.372 59.9609 14.0064C60.2537 14.6246 60.6766 15.1045 61.2297 15.4461C61.7991 15.7877 62.4498 15.9585 63.1819 15.9585C63.9139 15.9585 64.5321 15.804 65.0364 15.4949C65.5569 15.1858 65.9636 14.771 66.2564 14.2504L68.843 15.5193C68.5827 16.1537 68.176 16.7149 67.6229 17.203C67.0698 17.691 66.411 18.0733 65.6464 18.3498C64.8981 18.6264 64.0684 18.7647 63.1575 18.7647Z" fill="black"/>
<path d="M71.803 18.4718V0H74.9996V18.4718H71.803Z" fill="black"/>
<path d="M89.0471 18.7647C87.8921 18.7647 86.8185 18.5532 85.8261 18.1302C84.8501 17.7073 84.0042 17.1216 83.2884 16.3733C82.5889 15.6088 82.0765 14.7222 81.7511 13.7136L84.5085 12.5179C84.9477 13.559 85.5821 14.3806 86.4118 14.9825C87.2414 15.5681 88.1768 15.8609 89.2179 15.8609C89.8036 15.8609 90.3079 15.7714 90.7308 15.5925C91.1701 15.3973 91.5035 15.137 91.7313 14.8116C91.9753 14.4863 92.0973 14.0959 92.0973 13.6404C92.0973 13.1035 91.9346 12.6643 91.6093 12.3227C91.3002 11.9648 90.8284 11.6883 90.194 11.4931L86.7046 10.3706C85.2893 9.93136 84.2238 9.27253 83.508 8.39408C82.7922 7.51563 82.4344 6.48263 82.4344 5.2951C82.4344 4.25397 82.6865 3.33486 83.1908 2.53774C83.7114 1.74063 84.4271 1.12246 85.3381 0.683239C86.2654 0.227746 87.3228 0 88.5103 0C89.6002 0 90.6007 0.195211 91.5117 0.585633C92.4227 0.959788 93.2035 1.48848 93.8542 2.17172C94.5212 2.83869 95.0173 3.62767 95.3427 4.53866L92.6097 5.75873C92.2518 4.84774 91.715 4.14824 90.9992 3.66021C90.2835 3.15591 89.4538 2.90377 88.5103 2.90377C87.9572 2.90377 87.4692 3.00137 87.0462 3.19658C86.6233 3.37552 86.2898 3.63581 86.0458 3.97743C85.818 4.30278 85.7041 4.6932 85.7041 5.14869C85.7041 5.65299 85.8668 6.10035 86.1922 6.49077C86.5175 6.86492 87.0137 7.15774 87.6806 7.36922L91.0236 8.41848C92.4715 8.89024 93.5533 9.54094 94.269 10.3706C95.0011 11.2002 95.3671 12.2251 95.3671 13.4452C95.3671 14.4863 95.0987 15.4054 94.5618 16.2025C94.025 16.9996 93.2848 17.6259 92.3413 18.0814C91.3978 18.5369 90.2997 18.7647 89.0471 18.7647Z" fill="black"/>
<path d="M104.138 18.6183C102.642 18.6183 101.479 18.2116 100.649 17.3982C99.8357 16.5685 99.429 15.4054 99.429 13.9088V8.05246H97.1352V5.19749H97.3792C98.03 5.19749 98.5342 5.02669 98.8921 4.68507C99.25 4.34345 99.429 3.84728 99.429 3.19658V2.17172H102.626V5.19749H105.676V8.05246H102.626V13.738C102.626 14.1772 102.699 14.5514 102.845 14.8604C103.008 15.1695 103.252 15.4054 103.577 15.5681C103.919 15.7308 104.35 15.8121 104.87 15.8121C104.984 15.8121 105.114 15.804 105.261 15.7877C105.424 15.7714 105.578 15.7552 105.725 15.7389V18.4718C105.497 18.5044 105.236 18.5369 104.944 18.5695C104.651 18.602 104.382 18.6183 104.138 18.6183Z" fill="black"/>
<path d="M112.901 18.7647C111.876 18.7647 110.981 18.5369 110.216 18.0814C109.468 17.6259 108.891 16.9915 108.484 16.1781C108.094 15.3647 107.898 14.4131 107.898 13.3232V5.19749H111.095V13.0547C111.095 13.6078 111.201 14.0959 111.412 14.5188C111.64 14.9255 111.957 15.2509 112.364 15.4949C112.787 15.7226 113.259 15.8365 113.779 15.8365C114.3 15.8365 114.763 15.7226 115.17 15.4949C115.577 15.2509 115.894 14.9174 116.122 14.4944C116.349 14.0715 116.463 13.5672 116.463 12.9815V5.19749H119.66V18.4718H116.634V15.8609L116.902 16.3245C116.593 17.1379 116.081 17.7479 115.365 18.1546C114.666 18.5613 113.844 18.7647 112.901 18.7647Z" fill="black"/>
<path d="M128.805 18.7647C127.52 18.7647 126.373 18.4637 125.364 17.8618C124.356 17.2436 123.559 16.4059 122.973 15.3485C122.387 14.2911 122.094 13.1198 122.094 11.8347C122.094 10.5333 122.387 9.362 122.973 8.32087C123.559 7.27975 124.356 6.4501 125.364 5.83193C126.389 5.21376 127.528 4.90468 128.78 4.90468C129.789 4.90468 130.684 5.10802 131.465 5.51471C132.262 5.90514 132.888 6.45823 133.343 7.17401L132.855 7.83284V0H136.052V18.4718H133.026V15.9097L133.368 16.5441C132.912 17.2599 132.278 17.813 131.465 18.2034C130.651 18.5776 129.765 18.7647 128.805 18.7647ZM129.146 15.8365C129.878 15.8365 130.521 15.6657 131.074 15.3241C131.627 14.9825 132.058 14.5107 132.367 13.9088C132.693 13.3069 132.855 12.6155 132.855 11.8347C132.855 11.0701 132.693 10.3869 132.367 9.78496C132.058 9.16679 131.627 8.68689 131.074 8.34527C130.521 8.00365 129.878 7.83284 129.146 7.83284C128.431 7.83284 127.788 8.01179 127.219 8.36967C126.649 8.71129 126.202 9.18306 125.877 9.78496C125.568 10.3706 125.413 11.0538 125.413 11.8347C125.413 12.6155 125.568 13.3069 125.877 13.9088C126.202 14.5107 126.649 14.9825 127.219 15.3241C127.788 15.6657 128.431 15.8365 129.146 15.8365Z" fill="black"/>
<path d="M139.026 18.4718V5.19749H142.223V18.4718H139.026ZM139.026 3.70901V0.292816H142.223V3.70901H139.026Z" fill="black"/>
<path d="M151.665 18.7647C150.363 18.7647 149.176 18.4637 148.102 17.8618C147.045 17.2599 146.199 16.4384 145.564 15.3973C144.946 14.3561 144.637 13.1686 144.637 11.8347C144.637 10.5007 144.946 9.31319 145.564 8.27207C146.199 7.23094 147.045 6.40943 148.102 5.80753C149.159 5.20563 150.347 4.90468 151.665 4.90468C152.966 4.90468 154.146 5.20563 155.203 5.80753C156.26 6.40943 157.098 7.23094 157.716 8.27207C158.351 9.29693 158.668 10.4845 158.668 11.8347C158.668 13.1686 158.351 14.3561 157.716 15.3973C157.082 16.4384 156.236 17.2599 155.179 17.8618C154.121 18.4637 152.95 18.7647 151.665 18.7647ZM151.665 15.8365C152.38 15.8365 153.007 15.6657 153.544 15.3241C154.097 14.9825 154.528 14.5107 154.837 13.9088C155.162 13.2906 155.325 12.5992 155.325 11.8347C155.325 11.0538 155.162 10.3706 154.837 9.78496C154.528 9.18306 154.097 8.71129 153.544 8.36967C153.007 8.01179 152.38 7.83284 151.665 7.83284C150.933 7.83284 150.29 8.01179 149.737 8.36967C149.184 8.71129 148.745 9.18306 148.419 9.78496C148.11 10.3706 147.956 11.0538 147.956 11.8347C147.956 12.5992 148.11 13.2906 148.419 13.9088C148.745 14.5107 149.184 14.9825 149.737 15.3241C150.29 15.6657 150.933 15.8365 151.665 15.8365Z" fill="black"/>
</svg>
